<?xml version="1.0" encoding="UTF-8"?>
<svg data-name="Layer 1" id="Layer_1" viewBox="0 0 105.82 28.56" xmlns="http://www.w3.org/2000/svg">
    <defs>
        <style>.cls-1{fill:#ed1a3b;}.cls-2{fill:#3a769d;}</style>
    </defs>
    <title>website-logo</title>
    <path
        d="M25.37,10.92q-2-3.11-6.7-3.1A10,10,0,0,0,12.06,10c8.6-3.77,9.9,1.88,9.9,1.88q.88,2.6.08,8.32A34.35,34.35,0,0,1,21,25.37C19.25,30.93,15,31,15,31l.17,0a50.26,50.26,0,0,0,5,.38h0c-.25,1.5-2.31,3.84-2.31,3.84,6.39-1.43,8.33-13.6,8.33-13.6h0c.09-.47.17-.94.24-1.44Q27.37,14,25.37,10.92Z"
        fill="#ed1a3b" transform="translate(-7.09 -6.72)"></path>
    <path d="M43.59,27.55l.92-6.49q.48-3.46-.61-5.21c-.73-1.17-2-1.75-3.94-1.75a6.64,6.64,0,0,0-5.73,3,10.49,10.49,0,0,0-.62,1.1v0a4.34,4.34,0,0,0-.43-3.1,2.51,2.51,0,0,0-2.22-1,3,3,0,0,0-2,.6,2.35,2.35,0,0,0-.87,1.52,2.18,2.18,0,0,0,.22,1.34.87.87,0,0,1,.5-.37,2,2,0,0,1,.49-.07.58.58,0,0,1,.6.39,3.43,3.43,0,0,1,0,1.39l-1.6,11.43a2,2,0,0,0,.43,1.7,2.08,2.08,0,0,0,1.61.63,3.31,3.31,0,0,0,1.47-.32,6,6,0,0,0,1-.57,6.68,6.68,0,0,1-.24-1.23,10.24,10.24,0,0,1,0-1.45c0-.55.11-1.22.21-2s.24-1.81.41-3a17.54,17.54,0,0,1,.83-3.55A9.72,9.72,0,0,1,35.29,18a4.79,4.79,0,0,1,1.47-1.42,3.11,3.11,0,0,1,1.61-.46,1.84,1.84,0,0,1,2,1.42,11.21,11.21,0,0,1,0,4.07l-1.25,8.89a1.72,1.72,0,0,0,.44,1.56,2.14,2.14,0,0,0,1.56.56,3.4,3.4,0,0,0,1.4-.27,5.35,5.35,0,0,0,1.07-.65,7,7,0,0,1-.21-2.18C43.49,28.77,43.54,28.1,43.59,27.55Z"
        fill="#3a769d"
        transform="translate(-7.09 -6.72)"></path>
    <path d="M51.22,24.34c1,.06,1.93.09,2.87.09a10.94,10.94,0,0,0,5.63-1.34,5.15,5.15,0,0,0,2.62-3.88,4.12,4.12,0,0,0-.49-2.85,4.47,4.47,0,0,0-2.19-1.7,9.46,9.46,0,0,0-3.4-.56,9.21,9.21,0,0,0-6.7,2.48,11.4,11.4,0,0,0-3.15,6.78c-.41,3,0,5.27,1.34,6.88a7,7,0,0,0,5.83,2.42,9.55,9.55,0,0,0,4.16-.87,5.91,5.91,0,0,0,2.7-2.52,2.19,2.19,0,0,0,.41-1.34.7.7,0,0,0-.42-.55,5.33,5.33,0,0,1-2.11,1.95,6.71,6.71,0,0,1-3.28.76,5.15,5.15,0,0,1-2.72-.67,3.54,3.54,0,0,1-1.52-2.27,9.32,9.32,0,0,1-.17-2.86Zm4.7-8.8a2.82,2.82,0,0,1,1.22.26,1.72,1.72,0,0,1,.85.89,3.49,3.49,0,0,1,.11,1.87,5.19,5.19,0,0,1-.8,2.3,4.08,4.08,0,0,1-1.45,1.3,5.52,5.52,0,0,1-1.83.58,12.64,12.64,0,0,1-1.91.14c-.47,0-.91,0-1.33-.07a12.19,12.19,0,0,1,1.85-5.37A4,4,0,0,1,55.92,15.54Z"
        fill="#3a769d"
        transform="translate(-7.09 -6.72)"></path>
    <path d="M70.53,10,67.79,30a21.46,21.46,0,0,0,3.14-.24q1.63-.24,3.12-.6a20.38,20.38,0,0,0,2.55-.77,1.23,1.23,0,0,1,.45.86,4.35,4.35,0,0,1,0,1.3,2.85,2.85,0,0,1-.41,1.18.91.91,0,0,1-.82.5H65.73a2.25,2.25,0,0,1-1.59-.55,1.69,1.69,0,0,1-.44-1.58L66.1,13a20.31,20.31,0,0,0,.17-2.09,8.57,8.57,0,0,0-.2-2.09,5.9,5.9,0,0,1,1-.57,3.29,3.29,0,0,1,1.49-.32,2.22,2.22,0,0,1,1.57.54A1.69,1.69,0,0,1,70.53,10Z"
        fill="#3a769d"
        transform="translate(-7.09 -6.72)"></path>
    <path d="M83.47,27.55c-.09.66-.16,1.36-.19,2.09a7.61,7.61,0,0,0,.19,2.1,7.62,7.62,0,0,1-1,.58,3.07,3.07,0,0,1-1.47.34,2.13,2.13,0,0,1-1.54-.56,1.75,1.75,0,0,1-.43-1.56l1.6-11.4a19.37,19.37,0,0,0,.18-2.09,8.06,8.06,0,0,0-.21-2.1,8.25,8.25,0,0,1,.94-.56A3.07,3.07,0,0,1,83,14.06a2.16,2.16,0,0,1,1.56.55A1.7,1.7,0,0,1,85,16.16Z"
        fill="#3a769d"
        transform="translate(-7.09 -6.72)"></path>
    <path d="M100.46,7.49a6.88,6.88,0,0,0-3.6-.77,8.26,8.26,0,0,0-3.18.55,5.72,5.72,0,0,0-2.17,1.51A7.36,7.36,0,0,0,90.19,11a11.84,11.84,0,0,0-.68,2.65L87.14,30.54a1.7,1.7,0,0,0,.44,1.56,2.25,2.25,0,0,0,1.59.56,3,3,0,0,0,1.36-.29,5.2,5.2,0,0,0,1-.63,8,8,0,0,1-.17-2.18q.06-1.18.18-2l1.56-11.12H97a.76.76,0,0,0,.56-.26,1.33,1.33,0,0,0,.31-.73l.13-1a2.51,2.51,0,0,1-.48.05l-.83,0-.81,0-.46,0h-2l0-.24c.15-1.1.32-2.13.52-3.09a6.12,6.12,0,0,1,.9-2.32,2,2,0,0,1,1.76-.87,1.52,1.52,0,0,1,1.13.36A1.31,1.31,0,0,1,98,9.57a3.42,3.42,0,0,1-.24.87,3.27,3.27,0,0,1-.62.91,1.25,1.25,0,0,0,.67.45,3.44,3.44,0,0,0,1,.13,2.86,2.86,0,0,0,1.77-.61,2.36,2.36,0,0,0,.95-1.62A2.07,2.07,0,0,0,100.46,7.49Z"
        fill="#3a769d"
        transform="translate(-7.09 -6.72)"></path>
    <path d="M101.73,24.34c1,.06,1.93.09,2.87.09a10.94,10.94,0,0,0,5.63-1.34,5.15,5.15,0,0,0,2.62-3.88,4.07,4.07,0,0,0-.49-2.85,4.49,4.49,0,0,0-2.18-1.7,9.5,9.5,0,0,0-3.4-.56,9.19,9.19,0,0,0-6.7,2.48,11.34,11.34,0,0,0-3.15,6.78q-.63,4.47,1.33,6.88a7.05,7.05,0,0,0,5.84,2.42,9.51,9.51,0,0,0,4.15-.87A5.89,5.89,0,0,0,111,29.27a2.26,2.26,0,0,0,.41-1.34.74.74,0,0,0-.42-.55,5.33,5.33,0,0,1-2.11,1.95,6.71,6.71,0,0,1-3.28.76,5.13,5.13,0,0,1-2.72-.67,3.51,3.51,0,0,1-1.52-2.27,9,9,0,0,1-.18-2.86Zm4.71-8.8a2.74,2.74,0,0,1,1.21.26,1.68,1.68,0,0,1,.85.89,3.47,3.47,0,0,1,.12,1.87,5.32,5.32,0,0,1-.8,2.3,4.19,4.19,0,0,1-1.46,1.3,5.52,5.52,0,0,1-1.83.58,12.55,12.55,0,0,1-1.91.14c-.47,0-.91,0-1.32-.07a12.07,12.07,0,0,1,1.85-5.37A4,4,0,0,1,106.44,15.54Z"
        fill="#3a769d"
        transform="translate(-7.09 -6.72)"></path>
    <path d="M13.4,30.62h0a3.8,3.8,0,0,1-1.48-2.05Q11,26,11.85,20.24c.54-3.82,1.34-6.59,2.42-8.32a4.81,4.81,0,0,1,4.19-2.59,4.54,4.54,0,0,1,.65,0,7.52,7.52,0,0,0-4.23.35,16.4,16.4,0,0,0-3.3,1.42,6,6,0,0,0-2.27,2.42,21.18,21.18,0,0,0-2,6.68q-.87,6.21,1.15,9.32t6.68,3.1a11,11,0,0,0,4.54-.91S15,31.9,13.4,30.62Z"
        fill="#3a769d"
        transform="translate(-7.09 -6.72)"></path>
</svg>
